<svg id="svg" version="1.1" xmlns="http://www.w3.org/2000/svg" xmlns:xlink="http://www.w3.org/1999/xlink" width="1.9em" height="1.9em" viewBox="0, 0, 400,400"><g id="svgg"><path id="path0" d="M200.911 63.044 C 201.046 63.179,202.346 63.289,203.800 63.289 C 205.254 63.289,206.554 63.179,206.689 63.044 C 206.823 62.910,205.523 62.800,203.800 62.800 C 202.077 62.800,200.777 62.910,200.911 63.044 M196.800 64.000 C 196.800 64.220,197.070 64.400,197.400 64.400 C 197.730 64.400,198.000 64.220,198.000 64.000 C 198.000 63.780,197.730 63.600,197.400 63.600 C 197.070 63.600,196.800 63.780,196.800 64.000 M191.985 65.504 C 191.223 65.892,189.835 66.461,188.900 66.768 C 187.965 67.076,187.200 67.479,187.200 67.664 C 187.200 68.118,188.296 68.092,188.581 67.631 C 188.706 67.428,189.975 66.874,191.400 66.400 C 192.825 65.926,194.094 65.372,194.219 65.169 C 194.585 64.577,193.482 64.742,191.985 65.504 M198.000 65.555 C 192.924 66.891,177.697 73.964,174.127 76.644 C 172.392 77.946,171.816 77.663,166.450 72.876 C 163.414 70.167,163.245 70.138,162.511 72.200 C 161.041 76.328,166.611 88.619,170.998 90.926 C 173.559 92.273,177.562 93.932,179.868 94.603 C 181.818 95.169,182.912 96.400,181.466 96.400 C 176.611 96.400,168.065 91.174,165.318 86.525 C 164.563 85.246,164.053 84.650,164.186 85.200 C 164.957 88.388,164.902 95.017,164.088 97.000 C 162.706 100.368,162.723 101.529,164.212 105.804 C 165.552 109.654,165.560 109.716,165.323 114.960 C 165.139 119.025,165.232 120.925,165.726 123.220 C 166.162 125.245,166.450 129.403,166.623 136.200 L 166.877 146.200 165.439 149.274 C 164.647 150.964,164.000 152.797,164.000 153.345 C 164.000 155.759,160.831 157.312,153.387 158.547 C 145.227 159.899,140.865 161.775,133.800 166.969 C 132.260 168.101,129.920 169.730,128.600 170.589 C 127.280 171.448,125.501 172.607,124.647 173.166 C 121.683 175.105,116.613 180.485,115.003 183.400 C 114.152 184.940,112.066 187.846,110.367 189.858 C 106.147 194.855,99.600 206.129,99.600 208.397 C 99.600 208.591,98.513 211.202,97.186 214.200 C 95.054 219.013,94.746 220.033,94.554 222.925 C 94.435 224.726,93.999 227.280,93.586 228.600 C 93.173 229.920,92.636 231.630,92.391 232.400 C 91.914 233.905,91.702 238.385,91.351 254.400 C 90.959 272.288,90.900 270.925,92.142 272.716 L 93.237 274.297 92.980 283.048 L 92.722 291.800 94.413 293.800 L 96.103 295.800 95.848 300.800 C 95.613 305.399,95.658 305.907,96.415 307.140 C 97.739 309.298,99.236 313.596,99.640 316.400 C 99.899 318.200,100.687 320.377,102.199 323.472 C 103.401 325.932,104.689 328.722,105.062 329.672 C 106.813 334.135,111.047 339.365,113.948 340.649 C 118.111 342.492,134.002 343.079,144.974 341.795 C 150.195 341.185,151.771 340.800,149.052 340.800 C 137.413 340.800,121.331 322.365,112.587 299.000 C 109.786 291.516,109.058 277.150,109.972 247.400 C 110.632 225.917,111.427 221.647,116.005 214.992 C 119.425 210.022,128.713 207.427,137.569 208.968 C 143.395 209.982,144.120 210.395,153.800 218.212 C 158.052 221.647,162.249 224.858,167.303 228.546 C 169.010 229.792,172.112 232.244,174.196 233.997 C 176.280 235.749,179.744 238.477,181.893 240.060 C 197.811 251.779,207.984 267.233,211.625 285.224 L 212.965 291.848 212.247 298.624 C 211.127 309.190,210.646 311.283,208.435 315.200 C 207.380 317.070,205.912 319.680,205.173 321.000 C 202.086 326.515,194.922 332.551,186.400 336.817 L 182.200 338.919 175.600 338.916 L 169.000 338.913 175.600 339.166 C 183.840 339.481,232.249 339.483,232.565 339.168 C 232.693 339.041,231.974 336.611,230.969 333.768 C 229.964 330.926,228.731 327.430,228.230 326.000 C 227.729 324.570,226.816 322.411,226.203 321.202 C 225.589 319.993,224.230 316.573,223.184 313.602 C 221.003 307.412,220.835 306.964,217.866 299.400 C 216.657 296.320,215.359 292.720,214.982 291.400 C 213.854 287.450,209.765 275.272,208.200 271.200 C 207.397 269.110,205.938 264.970,204.958 262.000 C 202.136 253.450,198.486 246.503,195.309 243.635 C 192.540 241.136,192.013 239.541,193.869 239.276 C 196.340 238.924,199.652 242.081,202.183 247.200 C 202.999 248.850,203.903 250.650,204.193 251.200 C 204.976 252.687,206.937 258.021,208.531 263.000 C 209.306 265.420,210.518 268.930,211.224 270.800 C 213.138 275.871,217.541 288.631,218.400 291.600 C 218.813 293.030,219.949 296.180,220.924 298.600 C 221.899 301.020,223.370 304.890,224.194 307.200 C 226.500 313.669,227.844 317.178,229.021 319.800 C 229.613 321.120,230.508 323.370,231.008 324.800 C 232.151 328.061,233.517 331.102,233.965 331.378 C 234.153 331.494,234.718 332.897,235.221 334.495 C 236.701 339.201,236.577 339.149,246.689 339.285 C 253.059 339.371,255.201 339.280,255.200 338.925 C 255.199 337.120,252.944 329.411,251.730 327.065 C 249.685 323.110,246.912 311.300,244.812 297.600 C 244.190 293.547,241.933 282.275,241.533 281.231 C 241.133 280.187,239.644 273.237,238.577 267.432 C 238.256 265.689,237.822 263.619,237.612 262.832 C 237.401 262.044,237.051 259.510,236.832 257.200 C 236.614 254.890,236.314 251.981,236.167 250.736 C 235.770 247.393,236.243 244.921,237.428 244.145 C 239.018 243.103,239.740 244.018,239.410 246.658 C 238.937 250.444,240.278 261.309,242.218 269.400 C 242.534 270.720,242.972 272.970,243.192 274.400 C 243.411 275.830,243.927 278.170,244.338 279.600 C 244.749 281.030,245.479 284.270,245.961 286.800 C 246.443 289.330,247.007 292.148,247.215 293.062 C 247.423 293.977,247.763 295.867,247.972 297.262 C 249.965 310.607,252.326 320.769,254.597 325.772 C 255.863 328.562,258.800 337.337,258.800 338.331 C 258.800 339.573,259.897 340.400,261.544 340.400 C 262.362 340.400,263.744 340.765,264.615 341.211 C 265.487 341.656,267.370 342.372,268.800 342.801 C 276.434 345.092,285.013 351.241,285.485 354.761 C 285.929 358.070,289.639 354.497,291.154 349.300 L 292.108 346.028 291.224 343.663 C 289.690 339.563,287.309 337.990,281.800 337.439 C 278.420 337.101,277.365 336.479,276.817 334.502 C 275.379 329.308,273.436 322.809,272.215 319.112 C 270.971 315.342,270.800 314.334,270.800 310.783 C 270.800 308.128,270.529 305.620,270.009 303.471 C 269.575 301.672,268.944 298.310,268.608 296.000 C 268.272 293.690,267.743 290.630,267.432 289.200 C 267.121 287.770,266.658 285.160,266.403 283.400 C 266.148 281.640,265.503 278.498,264.970 276.418 C 264.436 274.338,264.000 272.251,264.000 271.781 C 264.000 271.310,263.652 269.914,263.227 268.678 C 262.469 266.475,261.905 262.936,260.556 251.908 C 259.890 246.462,259.891 246.391,260.754 243.308 C 261.233 241.599,261.779 238.922,261.967 237.359 C 262.156 235.797,262.690 233.659,263.155 232.608 C 263.620 231.558,264.000 230.172,264.000 229.529 C 264.000 228.886,264.287 227.805,264.638 227.127 C 265.050 226.329,265.185 225.454,265.019 224.647 C 264.384 221.562,264.348 220.770,264.782 219.454 C 265.037 218.683,265.865 217.375,266.623 216.547 C 268.246 214.775,268.234 214.869,267.159 212.510 C 266.067 210.114,266.314 208.652,268.390 205.217 C 269.284 203.738,270.572 200.931,271.252 198.979 L 272.490 195.431 272.222 188.816 C 271.460 169.993,268.848 160.518,264.229 159.825 C 260.560 159.275,260.234 158.624,259.976 151.335 C 259.673 142.768,259.682 142.786,250.789 134.000 C 244.058 127.350,244.246 127.688,243.986 121.777 C 243.755 116.512,244.010 117.287,240.034 109.806 C 237.699 105.411,239.685 99.759,245.221 95.047 C 246.738 93.756,246.166 87.842,244.384 86.387 C 243.671 85.805,242.618 84.378,242.043 83.216 C 240.785 80.673,240.462 80.628,239.605 82.874 C 238.706 85.228,237.226 87.488,233.935 91.536 C 232.403 93.420,231.003 95.223,230.824 95.542 C 230.642 95.869,230.221 96.017,229.864 95.880 C 228.912 95.515,229.762 93.415,231.774 91.159 C 234.590 88.002,237.521 83.301,238.427 80.491 L 239.295 77.794 238.196 74.697 L 237.096 71.600 234.381 71.600 C 230.484 71.600,228.491 70.119,231.500 69.459 C 233.185 69.089,234.369 67.259,233.387 66.541 C 231.981 65.513,226.844 65.846,223.113 67.208 C 218.716 68.813,218.188 68.785,212.600 66.658 C 207.073 64.554,202.978 64.245,198.000 65.555 M217.500 66.682 C 217.995 66.778,218.805 66.778,219.300 66.682 C 219.795 66.587,219.390 66.509,218.400 66.509 C 217.410 66.509,217.005 66.587,217.500 66.682 M237.053 68.400 C 237.295 68.730,237.574 69.261,237.673 69.580 C 237.789 69.952,237.948 70.007,238.117 69.734 C 238.262 69.499,237.983 68.968,237.497 68.553 C 237.011 68.139,236.812 68.070,237.053 68.400 M239.250 73.284 C 239.693 74.880,240.196 76.280,240.369 76.393 C 240.542 76.507,240.904 77.275,241.173 78.100 C 241.442 78.925,241.828 79.600,242.031 79.600 C 242.499 79.600,242.496 79.362,242.016 78.495 C 241.035 76.723,239.583 73.216,239.352 72.061 C 239.212 71.358,238.950 70.693,238.771 70.582 C 238.592 70.472,238.808 71.687,239.250 73.284 M173.853 71.480 C 173.543 71.790,173.513 74.800,173.820 74.800 C 174.301 74.800,176.399 73.561,176.378 73.290 C 176.341 72.801,174.122 71.211,173.853 71.480 M210.400 73.400 C 211.707 73.950,213.281 74.400,213.899 74.400 C 215.449 74.400,216.981 75.500,216.402 76.197 C 215.922 76.776,210.954 77.537,206.600 77.697 L 203.800 77.800 203.832 76.133 C 203.904 72.385,205.957 71.530,210.400 73.400 M171.019 74.965 C 171.444 75.275,171.961 75.424,172.169 75.296 C 172.377 75.167,172.199 74.926,171.773 74.759 C 170.521 74.269,170.190 74.359,171.019 74.965 M156.858 261.005 C 153.996 261.523,152.745 261.904,150.140 263.047 C 149.446 263.351,148.702 263.600,148.486 263.600 C 147.754 263.600,142.613 267.291,140.473 269.352 C 123.379 285.818,130.676 314.713,153.607 321.359 C 171.781 326.626,190.602 313.785,192.774 294.635 C 195.034 274.718,176.575 257.434,156.858 261.005 M168.000 262.391 C 191.797 267.276,200.098 296.661,182.451 313.543 C 167.948 327.416,143.434 322.536,134.905 304.077 C 124.658 281.898,144.048 257.474,168.000 262.391 M95.156 319.286 C 92.332 324.822,90.952 326.983,86.316 333.127 C 85.101 334.736,83.071 338.066,81.805 340.527 L 79.502 345.000 79.701 348.210 C 80.122 354.993,82.641 358.435,90.000 362.283 C 91.650 363.146,93.720 364.309,94.600 364.867 C 95.480 365.426,96.650 366.021,97.200 366.190 C 97.750 366.358,99.210 366.916,100.444 367.430 C 102.642 368.344,108.002 369.358,117.200 370.599 C 122.130 371.265,126.061 371.968,131.800 373.210 C 133.780 373.639,136.930 374.172,138.800 374.394 C 140.670 374.617,143.606 375.056,145.323 375.370 C 148.510 375.953,152.296 376.309,166.800 377.391 C 171.310 377.727,178.780 378.287,183.400 378.636 C 190.647 379.183,193.612 379.205,205.000 378.798 C 227.721 377.987,231.292 377.683,237.800 376.005 C 238.680 375.778,242.461 375.416,246.202 375.200 C 254.833 374.702,260.508 373.905,264.808 372.587 C 266.673 372.015,269.452 371.178,270.982 370.727 C 278.556 368.494,284.072 360.698,282.216 354.850 C 281.549 352.749,270.008 345.600,267.282 345.600 C 267.093 345.600,265.785 345.131,264.376 344.559 C 259.345 342.515,242.849 341.770,223.400 342.710 C 220.100 342.870,209.300 342.827,199.400 342.616 C 167.151 341.928,156.693 342.215,150.027 343.974 C 139.568 346.732,117.328 346.112,110.840 342.880 C 108.601 341.765,108.559 341.715,104.338 335.113 C 101.327 330.404,96.800 320.603,96.800 318.793 C 96.800 317.355,96.023 317.588,95.156 319.286 M165.507 339.490 C 166.226 339.579,167.306 339.577,167.907 339.486 C 168.508 339.395,167.920 339.322,166.600 339.324 C 165.280 339.326,164.788 339.401,165.507 339.490 M293.200 339.895 C 293.200 340.075,293.489 340.634,293.842 341.139 C 294.195 341.643,294.645 342.538,294.842 343.128 C 295.156 344.066,295.175 344.025,294.991 342.800 C 294.876 342.030,294.605 341.340,294.388 341.266 C 294.172 341.192,294.067 341.012,294.156 340.866 C 294.244 340.720,294.065 340.368,293.758 340.084 C 293.451 339.801,293.200 339.716,293.200 339.895 M295.281 347.467 C 295.237 349.264,295.096 351.064,294.970 351.467 C 294.756 352.146,294.772 352.149,295.186 351.506 C 295.454 351.090,295.579 349.493,295.498 347.506 L 295.363 344.200 295.281 347.467 M294.000 353.000 C 293.717 353.341,293.576 353.709,293.686 353.819 C 293.796 353.929,294.117 353.741,294.400 353.400 C 294.683 353.059,294.824 352.691,294.714 352.581 C 294.604 352.471,294.283 352.659,294.000 353.000 M286.900 359.661 C 285.965 360.317,285.200 361.132,285.200 361.474 C 285.200 364.304,276.681 373.211,273.383 373.830 C 272.023 374.085,271.437 374.800,272.588 374.800 C 273.355 374.800,276.379 373.269,277.400 372.363 C 281.502 368.724,282.554 367.662,283.091 366.613 C 283.432 365.946,283.841 365.310,284.000 365.200 C 284.476 364.870,285.600 362.486,285.600 361.807 C 285.600 361.459,285.915 361.061,286.300 360.922 C 286.685 360.784,287.270 360.421,287.600 360.117 C 287.930 359.812,288.560 359.307,289.000 358.994 C 289.575 358.586,289.631 358.432,289.200 358.447 C 288.870 358.459,287.835 359.005,286.900 359.661 M80.400 359.948 C 80.400 360.622,87.634 366.156,89.700 367.063 C 90.525 367.425,91.200 367.874,91.200 368.061 C 91.200 368.247,91.470 368.400,91.800 368.400 C 92.900 368.400,92.419 367.809,90.500 366.801 C 89.455 366.253,86.755 364.404,84.500 362.692 C 82.245 360.980,80.400 359.745,80.400 359.948 M96.160 369.772 C 96.797 370.125,97.412 370.321,97.526 370.207 C 97.842 369.891,97.513 369.691,96.199 369.398 L 95.000 369.131 96.160 369.772 M98.224 370.361 C 98.087 370.583,98.740 370.979,99.688 371.249 C 100.630 371.518,101.684 371.977,102.031 372.269 C 102.722 372.850,104.577 373.009,104.236 372.459 C 104.120 372.271,102.985 371.796,101.713 371.404 C 100.441 371.011,99.191 370.526,98.936 370.326 C 98.652 370.103,98.375 370.117,98.224 370.361 M111.582 373.499 C 113.222 373.575,114.752 373.792,114.982 373.980 C 115.212 374.168,117.920 374.625,121.000 374.995 C 124.080 375.366,126.780 375.811,127.000 375.985 C 127.220 376.158,129.470 376.607,132.000 376.983 C 134.530 377.359,136.985 377.819,137.456 378.005 C 138.788 378.531,144.000 378.954,144.000 378.537 C 144.000 378.335,141.409 377.848,138.242 377.453 C 135.076 377.058,131.791 376.499,130.942 376.211 C 130.094 375.922,127.690 375.472,125.600 375.210 C 123.510 374.948,121.440 374.579,121.000 374.390 C 119.768 373.861,113.757 373.191,111.036 373.279 C 108.649 373.357,108.659 373.362,111.582 373.499 M268.426 375.254 C 266.116 375.637,265.695 375.828,266.152 376.285 C 266.308 376.442,266.786 376.352,267.213 376.085 C 267.640 375.818,268.577 375.597,269.295 375.594 C 270.013 375.591,270.870 375.413,271.200 375.200 C 271.942 374.720,271.604 374.727,268.426 375.254 M264.200 376.400 C 264.064 376.620,264.334 376.800,264.800 376.800 C 265.266 376.800,265.536 376.620,265.400 376.400 C 265.264 376.180,264.994 376.000,264.800 376.000 C 264.606 376.000,264.336 376.180,264.200 376.400 " stroke="none" fill="#8b934c" fill-rule="evenodd"></path><path id="path1" d="M127.000 208.783 C 113.593 212.144,110.865 218.332,109.972 247.400 C 109.058 277.150,109.786 291.516,112.587 299.000 C 122.158 324.573,138.882 342.421,151.448 340.472 C 156.122 339.747,165.574 339.130,174.485 338.967 L 182.369 338.823 186.485 336.768 C 194.903 332.566,202.096 326.497,205.173 321.000 C 205.912 319.680,207.380 317.070,208.435 315.200 C 210.646 311.283,211.127 309.190,212.247 298.624 L 212.965 291.848 211.625 285.224 C 207.984 267.233,197.811 251.779,181.893 240.060 C 179.744 238.477,176.280 235.749,174.196 233.997 C 172.112 232.244,169.010 229.792,167.303 228.546 C 162.249 224.858,158.052 221.647,153.800 218.212 C 147.171 212.858,144.889 211.194,143.080 210.394 C 139.514 208.817,130.476 207.911,127.000 208.783 M165.648 260.802 C 193.905 264.040,202.743 300.327,179.348 317.049 C 161.582 329.747,134.703 318.587,131.603 297.226 C 130.558 290.022,131.047 285.322,133.420 279.752 C 136.230 273.157,145.144 263.600,148.486 263.600 C 148.702 263.600,149.446 263.351,150.140 263.047 C 155.410 260.734,159.673 260.117,165.648 260.802 " stroke="none" fill="#faf1d1" fill-rule="evenodd"></path><path id="path2" d="M199.800 64.190 L 197.800 64.756 199.600 64.478 C 204.519 63.718,211.116 64.907,216.080 67.447 C 217.490 68.168,219.907 68.148,221.337 67.402 C 225.462 65.251,234.400 64.925,234.400 66.926 C 234.400 67.744,232.330 70.000,231.580 70.000 C 231.151 70.000,230.800 70.168,230.800 70.373 C 230.800 70.989,232.450 71.332,235.085 71.264 L 237.569 71.201 237.994 72.777 C 238.227 73.644,238.749 75.092,239.153 75.995 C 240.477 78.952,237.312 85.707,231.933 91.406 C 230.772 92.637,229.025 96.621,230.095 95.600 C 232.949 92.876,238.347 85.058,239.456 82.041 C 240.488 79.233,240.622 79.264,242.359 82.719 C 243.331 84.652,244.294 86.040,244.769 86.190 C 245.767 86.507,246.051 87.413,246.403 91.400 L 246.685 94.600 246.740 91.800 C 246.811 88.241,246.268 86.250,245.080 85.709 C 243.906 85.174,239.440 76.301,238.138 71.916 C 236.155 65.239,228.993 63.055,221.516 66.847 C 219.131 68.057,218.091 67.862,210.338 64.756 C 207.822 63.748,202.394 63.457,199.800 64.190 M227.462 63.900 C 227.360 64.065,228.232 64.200,229.400 64.200 C 230.568 64.200,231.440 64.065,231.338 63.900 C 231.236 63.735,230.364 63.600,229.400 63.600 C 228.436 63.600,227.564 63.735,227.462 63.900 M194.000 65.858 C 193.010 66.198,192.025 66.644,191.811 66.848 C 191.488 67.155,193.982 66.419,196.400 65.493 C 197.836 64.943,195.726 65.264,194.000 65.858 M189.200 67.790 C 187.377 68.485,175.576 74.492,174.360 75.343 C 172.509 76.640,170.977 75.887,166.000 71.234 C 165.010 70.308,163.705 69.287,163.100 68.965 C 162.495 68.643,162.000 68.283,162.000 68.166 C 162.000 68.049,162.180 68.064,162.400 68.200 C 162.620 68.336,162.800 68.257,162.800 68.024 C 162.800 67.360,161.090 67.544,160.153 68.309 C 159.145 69.132,158.343 72.771,158.825 74.340 C 159.004 74.923,159.365 76.660,159.628 78.200 C 159.891 79.740,160.450 82.080,160.870 83.400 C 162.140 87.390,162.333 94.579,161.228 96.744 C 159.699 99.741,159.674 103.288,161.159 106.400 C 162.380 108.960,162.399 109.096,162.404 115.200 C 162.407 119.454,162.590 121.999,162.988 123.308 C 163.393 124.643,163.643 128.319,163.820 135.534 L 164.072 145.850 162.804 148.425 C 162.106 149.841,161.235 151.622,160.868 152.382 C 159.864 154.460,158.365 155.090,152.384 155.947 C 145.636 156.913,137.516 160.264,133.800 163.616 C 133.360 164.013,130.930 165.698,128.400 167.360 C 118.364 173.955,114.415 177.699,112.112 182.800 C 111.665 183.790,110.192 185.860,108.838 187.400 C 104.091 192.801,100.218 199.409,96.999 207.600 C 96.265 209.470,94.945 212.559,94.066 214.465 C 91.383 220.285,89.338 231.672,89.012 242.600 C 88.894 246.560,88.707 250.700,88.596 251.800 C 88.485 252.900,88.351 257.760,88.297 262.600 L 88.200 271.400 89.356 273.367 C 90.501 275.315,90.509 275.375,90.187 279.367 C 89.427 288.766,89.918 292.767,92.118 295.091 C 93.444 296.492,93.443 296.484,93.165 302.651 C 93.006 306.161,93.054 306.414,94.395 309.187 L 95.789 312.071 92.995 317.526 C 90.082 323.210,88.299 326.027,84.211 331.400 C 82.872 333.160,80.706 336.721,79.398 339.314 L 77.019 344.028 76.862 348.261 C 76.773 350.690,76.868 352.602,77.087 352.747 C 77.297 352.886,77.919 353.990,78.470 355.200 C 80.848 360.421,88.333 365.995,97.312 369.231 C 99.684 370.086,101.987 370.979,102.431 371.216 C 103.532 371.806,107.053 372.348,111.583 372.624 C 113.664 372.751,115.489 372.932,115.640 373.025 C 115.790 373.118,118.408 373.560,121.456 374.008 C 124.505 374.456,127.717 375.016,128.594 375.252 C 133.775 376.647,151.351 379.162,159.000 379.603 C 173.002 380.410,179.162 380.873,181.200 381.272 C 183.914 381.803,208.984 382.022,213.400 381.553 C 215.160 381.366,219.300 381.028,222.600 380.803 C 228.841 380.376,232.120 380.029,239.200 379.044 C 241.510 378.723,246.297 378.265,249.838 378.026 C 255.500 377.644,263.174 376.384,267.000 375.208 C 267.660 375.006,269.370 374.540,270.800 374.174 C 276.464 372.723,281.951 367.912,284.365 362.281 C 284.780 361.313,285.769 360.068,286.649 359.406 C 293.596 354.179,295.049 351.848,294.674 346.529 C 294.365 342.153,291.439 337.037,288.757 336.186 C 288.270 336.032,288.029 335.701,288.159 335.364 C 288.407 334.717,287.946 334.614,287.371 335.189 C 287.118 335.442,285.748 335.352,283.473 334.934 C 279.444 334.195,279.370 334.116,278.217 329.400 C 277.840 327.860,276.708 324.170,275.699 321.200 C 274.020 316.252,273.844 315.364,273.604 310.600 C 273.460 307.740,273.045 304.320,272.682 303.000 C 272.319 301.680,271.857 299.340,271.656 297.800 C 271.228 294.532,269.848 285.990,269.006 281.400 C 268.683 279.640,268.314 277.228,268.185 276.040 C 268.056 274.852,267.598 272.962,267.166 271.840 C 265.653 267.910,264.416 262.156,264.017 257.200 C 263.795 254.450,263.431 251.571,263.207 250.803 C 262.644 248.869,262.697 247.268,263.417 244.458 C 263.756 243.134,264.185 240.735,264.370 239.126 C 264.555 237.517,265.088 235.210,265.553 234.000 C 266.019 232.790,266.400 231.281,266.400 230.647 C 266.400 230.013,266.782 228.877,267.248 228.122 C 267.960 226.970,268.050 226.414,267.806 224.674 C 267.211 220.428,267.318 219.809,268.963 217.988 C 270.622 216.152,270.595 216.398,269.762 210.563 C 269.560 209.148,269.772 208.468,271.325 205.563 C 272.314 203.713,273.619 200.619,274.224 198.687 L 275.326 195.175 274.831 186.887 C 274.199 176.292,273.883 173.829,272.365 167.657 C 270.364 159.522,269.503 158.310,264.924 157.192 C 262.834 156.681,262.780 156.513,262.599 149.984 C 262.381 142.095,261.890 141.161,253.764 133.156 C 247.667 127.149,246.800 125.892,246.800 123.057 C 246.800 117.116,245.904 114.024,242.917 109.648 C 241.082 106.961,242.103 102.066,245.245 98.488 C 246.046 97.575,246.386 96.778,246.354 95.886 C 246.328 95.179,246.225 94.915,246.124 95.300 C 246.024 95.685,245.630 96.000,245.249 96.000 C 243.150 96.000,239.920 101.804,239.685 106.000 C 239.543 108.523,239.595 108.688,241.431 111.539 C 243.673 115.021,244.385 117.662,244.394 122.526 C 244.402 126.994,244.111 126.529,252.003 134.661 C 260.258 143.166,260.096 142.852,260.379 150.860 C 260.640 158.259,260.702 158.380,264.895 159.628 C 268.156 160.600,268.225 160.711,270.064 168.000 C 274.177 184.306,273.464 198.374,268.114 206.458 C 267.082 208.017,267.050 208.838,267.824 213.905 C 268.063 215.464,267.964 215.743,266.672 217.173 C 265.079 218.937,264.462 221.466,265.171 223.326 C 265.760 224.871,265.688 226.449,264.987 227.376 C 264.664 227.804,264.400 228.654,264.400 229.267 C 264.400 229.880,263.966 231.534,263.436 232.942 C 262.906 234.350,262.286 237.009,262.059 238.851 C 261.831 240.693,261.334 243.154,260.955 244.321 C 260.308 246.309,260.306 246.734,260.916 251.121 C 261.273 253.694,261.675 257.240,261.809 259.000 C 262.026 261.872,263.528 269.227,264.995 274.600 C 265.295 275.700,265.906 278.580,266.353 281.000 C 268.039 290.124,269.192 296.692,269.583 299.400 C 269.805 300.940,270.194 302.830,270.447 303.600 C 270.700 304.370,271.040 307.430,271.204 310.400 C 271.469 315.225,271.676 316.325,273.150 320.727 C 274.057 323.437,275.440 327.937,276.225 330.727 C 277.943 336.837,277.459 336.311,282.042 337.048 C 290.299 338.376,293.348 342.229,291.556 349.071 C 290.544 352.937,290.489 353.033,287.988 355.372 C 285.797 357.422,285.219 357.384,285.206 355.189 C 285.195 353.371,283.948 352.036,278.691 348.210 C 275.374 345.796,273.503 344.801,270.400 343.800 C 269.190 343.410,266.940 342.599,265.400 341.998 C 263.860 341.397,261.761 340.783,260.735 340.633 C 258.858 340.360,258.400 339.909,258.400 338.331 C 258.400 337.367,256.537 331.838,254.177 325.800 C 251.499 318.946,249.739 311.577,248.014 299.996 C 247.587 297.130,247.145 294.635,247.032 294.452 C 246.918 294.268,246.631 292.786,246.394 291.159 C 246.157 289.531,245.256 285.230,244.393 281.600 C 240.617 265.727,238.529 252.448,238.975 247.142 C 239.236 244.024,238.604 243.314,237.170 245.118 C 236.401 246.086,236.334 246.536,236.534 249.400 C 236.859 254.064,237.946 263.099,238.382 264.764 C 239.059 267.349,239.921 271.364,240.194 273.200 C 240.341 274.190,241.058 277.430,241.787 280.400 C 242.516 283.370,243.325 287.060,243.584 288.600 C 243.843 290.140,244.311 292.660,244.625 294.200 C 244.939 295.740,245.573 299.250,246.034 302.000 C 247.690 311.879,248.085 313.864,249.256 318.200 C 249.909 320.620,251.083 324.130,251.863 326.000 C 253.036 328.811,256.213 339.670,255.894 339.777 C 255.842 339.794,251.619 339.716,246.510 339.604 C 235.883 339.371,236.330 339.526,235.022 335.600 C 234.619 334.390,233.962 332.770,233.562 332.000 C 232.724 330.389,231.033 326.270,230.606 324.800 C 230.447 324.250,229.592 322.180,228.707 320.200 C 227.822 318.220,226.231 314.170,225.171 311.200 C 223.184 305.631,222.163 302.908,219.996 297.400 C 219.303 295.640,218.409 293.030,218.007 291.600 C 217.247 288.892,213.202 277.256,210.499 270.000 C 209.638 267.690,208.253 263.645,207.421 261.012 C 204.474 251.685,199.896 242.836,197.000 240.868 C 193.237 238.310,191.959 239.913,195.333 242.958 C 198.970 246.240,202.055 252.062,205.210 261.600 C 206.265 264.790,207.931 269.560,208.913 272.200 C 210.917 277.590,214.358 287.782,215.381 291.356 C 215.752 292.652,216.871 295.712,217.867 298.156 C 218.864 300.600,220.943 306.110,222.488 310.400 C 224.033 314.690,225.800 319.280,226.415 320.600 C 228.983 326.111,233.507 339.027,233.034 339.499 C 232.868 339.664,216.143 339.814,195.866 339.831 C 159.854 339.862,155.288 339.997,150.914 341.166 C 142.112 343.518,118.951 343.365,113.491 340.918 C 110.400 339.532,105.147 332.553,104.219 328.600 C 104.064 327.940,103.707 327.130,103.425 326.800 C 102.463 325.673,99.672 319.003,99.409 317.200 C 99.037 314.660,97.694 310.612,96.295 307.814 C 95.171 305.567,95.120 305.262,95.424 302.614 C 95.961 297.940,95.747 296.060,94.499 294.492 C 93.895 293.732,93.184 292.815,92.919 292.455 C 92.363 291.697,92.224 285.081,92.637 278.995 C 92.907 275.017,92.901 274.974,91.620 272.595 C 90.369 270.272,90.337 270.091,90.554 266.600 C 90.677 264.620,90.875 257.870,90.993 251.600 C 91.257 237.568,91.672 232.883,92.990 229.065 C 93.590 227.328,94.000 225.252,94.000 223.954 C 94.000 221.128,94.874 217.823,96.443 214.715 C 97.131 213.351,98.320 210.616,99.085 208.636 C 102.166 200.658,106.124 193.825,110.382 189.134 C 111.713 187.668,113.538 185.148,114.438 183.534 C 116.184 180.403,122.900 173.381,125.339 172.137 C 126.663 171.461,131.605 168.109,135.000 165.583 C 140.764 161.296,146.091 159.126,153.200 158.170 C 160.382 157.204,163.429 155.619,163.809 152.652 C 163.910 151.863,164.550 150.037,165.232 148.596 L 166.470 145.974 166.214 136.087 C 166.038 129.287,165.759 125.337,165.320 123.437 C 164.823 121.280,164.734 119.417,164.915 114.944 C 165.043 111.793,164.999 109.123,164.819 109.012 C 164.638 108.900,164.364 108.132,164.209 107.304 C 164.054 106.477,163.561 104.995,163.113 104.011 C 162.217 102.043,162.392 100.126,163.805 96.400 C 164.558 94.414,164.410 87.581,163.537 84.117 C 162.858 81.419,163.359 81.681,165.002 84.881 C 167.299 89.355,168.806 90.978,172.119 92.540 C 175.287 94.034,181.185 96.148,181.449 95.884 C 181.541 95.792,180.127 95.216,178.308 94.603 C 170.040 91.817,168.089 90.134,164.392 82.600 C 161.676 77.064,161.328 75.620,162.010 72.711 C 162.887 68.971,163.085 68.990,167.600 73.241 C 168.810 74.380,170.495 75.752,171.344 76.289 L 172.888 77.265 173.944 76.258 C 174.525 75.704,178.690 73.440,183.200 71.226 C 190.904 67.444,192.491 66.535,189.200 67.790 M173.067 69.867 C 172.920 70.013,172.821 71.228,172.848 72.567 L 172.895 75.000 173.290 72.800 C 173.787 70.027,173.727 70.066,175.213 71.551 C 175.900 72.238,176.643 72.800,176.864 72.800 C 177.086 72.800,176.495 72.080,175.551 71.200 C 173.784 69.552,173.522 69.411,173.067 69.867 M205.325 73.114 C 204.004 73.954,203.548 77.600,204.763 77.600 C 206.396 77.600,215.432 76.305,216.000 75.990 C 216.669 75.618,215.017 74.800,213.598 74.800 C 213.185 74.800,211.600 74.350,210.075 73.800 C 207.188 72.759,206.126 72.605,205.325 73.114 M87.733 240.211 C 87.722 242.086,87.798 243.536,87.901 243.432 C 88.187 243.146,88.270 237.637,87.995 237.192 C 87.862 236.977,87.745 238.336,87.733 240.211 M91.756 302.171 C 91.635 302.485,91.604 303.160,91.686 303.671 C 91.795 304.354,91.888 304.204,92.037 303.100 C 92.247 301.547,92.136 301.181,91.756 302.171 M97.167 318.421 C 98.308 323.741,105.966 338.363,109.173 341.345 C 110.928 342.977,115.027 344.313,119.812 344.813 C 127.705 345.638,147.034 344.729,150.939 343.351 C 155.037 341.904,159.725 341.817,218.600 342.097 C 260.796 342.297,259.320 342.210,266.909 344.949 C 277.518 348.778,283.022 353.039,282.981 357.392 C 282.924 363.247,277.704 369.240,271.000 371.145 C 269.460 371.583,267.176 372.312,265.924 372.765 C 262.355 374.059,254.497 375.186,246.087 375.611 C 240.922 375.871,237.899 376.199,236.936 376.601 C 235.070 377.381,227.270 378.398,223.080 378.408 C 221.276 378.412,218.630 378.603,217.200 378.832 C 212.555 379.575,190.219 379.694,182.600 379.016 C 172.081 378.080,171.515 378.039,163.000 377.575 C 158.600 377.335,151.940 376.697,148.200 376.156 C 144.460 375.615,140.103 374.995,138.518 374.777 C 136.933 374.560,133.056 373.860,129.902 373.221 C 126.749 372.582,119.676 371.409,114.184 370.615 C 101.367 368.761,100.160 368.372,89.810 362.762 C 82.147 358.609,79.500 354.792,79.434 347.800 C 79.387 342.846,81.003 339.637,89.127 328.552 C 90.597 326.546,92.788 322.991,93.995 320.652 C 96.520 315.762,96.587 315.715,97.167 318.421 M75.843 344.633 C 75.473 345.595,75.565 349.325,75.974 349.971 C 76.204 350.335,76.317 349.355,76.286 347.271 C 76.234 343.773,76.216 343.661,75.843 344.633 " stroke="none" fill="#0e0f09" fill-rule="evenodd"></path><path id="path3" d="M156.400 262.206 C 128.809 267.844,123.267 305.239,148.127 318.028 C 151.474 319.749,151.999 319.924,157.200 321.044 C 174.093 324.682,192.000 309.545,192.000 291.628 C 192.000 273.132,174.344 258.540,156.400 262.206 " stroke="none" fill="#913c05" fill-rule="evenodd"></path><path id="path4" d="M199.433 63.171 C 198.791 63.297,198.185 63.644,198.085 63.943 C 197.940 64.379,198.250 64.419,199.652 64.143 C 202.682 63.548,208.061 63.838,210.237 64.713 C 217.931 67.807,219.162 68.054,221.320 66.938 C 223.428 65.847,226.427 65.210,229.474 65.205 C 233.509 65.198,234.082 65.479,236.789 68.800 L 237.605 69.800 237.414 68.619 C 236.695 64.164,227.100 62.503,221.329 65.835 C 219.516 66.882,217.008 67.120,216.684 66.276 C 216.574 65.988,215.340 65.416,213.942 65.006 C 212.544 64.595,211.220 64.129,211.000 63.969 C 210.278 63.444,207.191 62.758,206.757 63.027 C 206.288 63.317,201.463 63.390,200.934 63.116 C 200.750 63.021,200.075 63.046,199.433 63.171 M196.226 63.957 C 196.076 64.201,195.623 64.400,195.219 64.400 C 194.816 64.400,194.389 64.651,194.272 64.958 C 194.154 65.265,192.876 65.909,191.433 66.389 C 189.990 66.869,188.687 67.459,188.539 67.699 C 188.376 67.962,188.494 68.051,188.834 67.923 C 191.761 66.820,190.138 67.763,183.200 71.195 C 178.690 73.426,174.525 75.704,173.944 76.258 L 172.888 77.265 171.344 76.285 C 170.495 75.746,168.998 74.569,168.017 73.668 C 167.037 72.768,166.137 72.131,166.017 72.252 C 165.785 72.486,166.931 73.501,170.283 76.029 C 172.742 77.883,172.523 77.848,174.127 76.644 C 174.827 76.118,178.370 74.179,182.000 72.333 C 197.993 64.205,203.481 63.187,212.600 66.658 C 218.188 68.785,218.716 68.813,223.113 67.208 C 226.844 65.846,231.981 65.513,233.387 66.541 C 234.369 67.259,233.185 69.089,231.500 69.459 C 229.337 69.933,230.335 71.639,232.733 71.568 C 233.862 71.535,233.687 71.422,231.900 71.027 C 230.642 70.750,230.408 70.000,231.580 70.000 C 232.330 70.000,234.400 67.744,234.400 66.926 C 234.400 64.925,225.462 65.251,221.337 67.402 C 219.907 68.148,217.490 68.168,216.080 67.447 C 211.105 64.901,205.624 63.916,199.286 64.429 C 197.788 64.550,197.074 64.442,196.836 64.057 C 196.602 63.679,196.417 63.649,196.226 63.957 M196.400 65.493 C 193.982 66.419,191.488 67.155,191.811 66.848 C 192.300 66.382,195.598 65.234,196.400 65.251 C 196.933 65.262,196.933 65.289,196.400 65.493 M182.309 69.858 L 178.018 72.018 177.109 71.190 C 176.609 70.735,175.834 70.011,175.386 69.581 C 173.400 67.676,171.706 68.981,171.508 72.569 C 171.440 73.817,171.197 74.604,170.844 74.721 C 170.539 74.821,170.398 74.727,170.532 74.510 C 170.849 73.998,169.044 72.299,168.606 72.696 C 168.422 72.863,168.396 72.784,168.547 72.520 C 168.709 72.239,168.446 71.843,167.911 71.564 C 167.410 71.302,166.550 70.562,166.000 69.920 C 165.412 69.233,164.370 68.612,163.468 68.411 C 161.716 68.021,161.713 68.009,163.738 69.384 C 164.572 69.950,165.402 70.322,165.582 70.211 C 165.762 70.100,165.885 70.265,165.855 70.577 C 165.785 71.300,170.676 75.525,171.982 75.869 C 172.637 76.042,173.435 75.847,174.382 75.284 C 175.162 74.819,178.553 73.051,181.918 71.355 C 186.002 69.296,187.864 68.160,187.518 67.941 C 186.850 67.517,187.252 67.369,182.309 69.858 M162.891 70.105 C 162.672 70.377,162.383 71.230,162.250 72.000 L 162.007 73.400 162.531 72.024 C 163.175 70.332,163.643 70.143,164.591 71.190 C 165.329 72.005,166.250 72.329,165.812 71.619 C 165.183 70.601,163.284 69.617,162.891 70.105 M175.447 71.102 C 177.188 72.726,177.111 73.206,174.926 74.345 C 173.682 74.993,173.606 74.947,173.547 73.500 L 173.495 72.200 173.200 73.600 C 172.944 74.815,172.898 74.678,172.853 72.567 C 172.777 69.066,173.079 68.895,175.447 71.102 M237.859 69.905 C 237.106 71.124,243.425 84.955,245.080 85.709 C 246.268 86.250,246.811 88.241,246.740 91.800 L 246.685 94.600 246.403 91.400 C 246.051 87.413,245.767 86.507,244.769 86.190 C 244.294 86.040,243.331 84.652,242.359 82.719 C 240.622 79.264,240.488 79.233,239.456 82.041 C 238.347 85.058,232.949 92.876,230.095 95.600 C 229.025 96.621,230.772 92.637,231.933 91.406 C 237.312 85.707,240.477 78.952,239.153 75.995 C 238.749 75.092,238.227 73.644,237.994 72.777 C 237.580 71.241,237.525 71.202,235.885 71.267 C 234.204 71.334,234.203 71.335,235.656 71.489 C 237.076 71.639,237.138 71.718,238.203 74.718 L 239.295 77.794 238.427 80.491 C 237.521 83.301,234.590 88.002,231.774 91.159 C 229.762 93.415,228.912 95.515,229.864 95.880 C 230.221 96.017,230.642 95.869,230.824 95.542 C 231.003 95.223,232.403 93.420,233.935 91.536 C 237.195 87.527,238.706 85.228,239.573 82.958 C 240.429 80.715,240.827 80.757,242.043 83.216 C 242.618 84.378,243.671 85.805,244.384 86.387 C 246.166 87.842,246.738 93.756,245.221 95.047 C 242.248 97.577,241.236 98.893,240.282 101.467 C 238.384 106.590,238.498 107.790,241.303 112.160 C 241.998 113.244,242.884 115.046,243.270 116.165 C 243.657 117.284,243.972 117.840,243.969 117.400 C 243.962 116.056,243.023 113.927,241.237 111.200 C 238.225 106.604,241.024 96.000,245.249 96.000 C 245.630 96.000,246.024 95.685,246.124 95.300 C 246.225 94.915,246.328 95.179,246.354 95.886 C 246.386 96.778,246.046 97.575,245.245 98.488 C 242.103 102.066,241.082 106.961,242.917 109.648 C 245.904 114.024,246.800 117.116,246.800 123.057 C 246.800 125.892,247.667 127.149,253.764 133.156 C 261.890 141.161,262.381 142.095,262.599 149.984 C 262.780 156.513,262.834 156.681,264.924 157.192 C 271.251 158.738,273.566 165.675,274.831 186.887 L 275.326 195.175 274.224 198.687 C 273.619 200.619,272.314 203.713,271.325 205.563 C 269.772 208.468,269.560 209.148,269.762 210.563 C 270.595 216.398,270.622 216.152,268.963 217.988 C 267.318 219.809,267.211 220.428,267.806 224.674 C 268.050 226.414,267.960 226.970,267.248 228.122 C 266.782 228.877,266.400 230.013,266.400 230.647 C 266.400 231.281,266.019 232.790,265.553 234.000 C 265.088 235.210,264.555 237.517,264.370 239.126 C 264.185 240.735,263.756 243.134,263.417 244.458 C 262.697 247.268,262.644 248.869,263.207 250.803 C 263.431 251.571,263.795 254.450,264.017 257.200 C 264.416 262.156,265.653 267.910,267.166 271.840 C 267.598 272.962,268.056 274.852,268.185 276.040 C 268.314 277.228,268.683 279.640,269.006 281.400 C 269.848 285.990,271.228 294.532,271.656 297.800 C 271.857 299.340,272.319 301.680,272.682 303.000 C 273.045 304.320,273.460 307.740,273.604 310.600 C 273.844 315.364,274.020 316.252,275.699 321.200 C 276.708 324.170,277.840 327.860,278.217 329.400 C 279.370 334.116,279.444 334.195,283.473 334.934 C 286.481 335.487,289.216 335.288,286.940 334.683 C 285.938 334.416,282.835 333.694,281.573 333.433 C 280.321 333.175,279.866 332.280,279.015 328.400 C 278.653 326.750,278.185 325.040,277.974 324.600 C 277.763 324.160,277.336 322.900,277.025 321.800 C 276.713 320.700,276.057 318.720,275.566 317.400 C 274.877 315.547,274.632 313.860,274.492 310.000 C 274.392 307.250,274.169 304.820,273.997 304.600 C 273.825 304.380,273.464 302.490,273.195 300.400 C 272.925 298.310,272.472 295.610,272.187 294.400 C 271.903 293.190,271.460 290.670,271.204 288.800 C 270.947 286.930,270.560 284.410,270.342 283.200 C 270.124 281.990,269.708 279.370,269.418 277.378 C 268.948 274.158,267.912 270.331,266.175 265.400 C 265.865 264.520,265.359 260.899,265.049 257.354 C 264.739 253.809,264.287 250.536,264.043 250.080 C 263.531 249.124,263.442 246.000,263.927 246.000 C 264.296 246.000,265.045 242.248,265.426 238.492 C 265.566 237.112,266.025 235.270,266.447 234.397 C 266.869 233.524,267.330 231.953,267.473 230.905 C 267.615 229.857,268.087 228.517,268.521 227.927 C 269.170 227.045,269.259 226.512,269.024 224.927 C 268.263 219.791,268.213 220.214,269.763 218.664 C 271.379 217.048,271.685 214.623,270.725 211.034 C 270.267 209.321,270.300 209.179,271.633 207.128 C 274.582 202.594,276.583 195.983,276.229 191.940 C 276.088 190.323,275.816 186.480,275.625 183.400 C 275.228 176.998,274.542 171.369,274.016 170.200 C 273.818 169.760,273.364 167.960,273.007 166.200 C 272.650 164.440,272.206 162.640,272.019 162.200 C 271.833 161.760,271.473 160.860,271.219 160.200 C 270.622 158.648,268.285 156.878,266.446 156.586 C 263.764 156.161,263.821 156.300,263.578 149.555 C 263.289 141.552,263.050 141.083,255.250 133.207 C 247.419 125.299,247.601 125.566,247.598 121.962 C 247.593 116.259,246.387 112.221,243.747 109.069 C 242.418 107.482,242.724 103.276,244.286 101.671 C 244.569 101.381,244.800 100.967,244.800 100.752 C 244.800 100.538,245.274 99.923,245.853 99.386 C 248.487 96.945,248.298 86.262,245.594 84.719 C 244.937 84.344,244.400 83.778,244.400 83.461 C 244.400 83.145,244.104 82.772,243.743 82.633 C 243.381 82.495,243.190 82.276,243.319 82.148 C 243.447 82.020,243.209 81.547,242.790 81.097 C 242.371 80.647,242.122 80.126,242.237 79.939 C 242.353 79.753,242.264 79.600,242.040 79.600 C 241.816 79.600,241.416 78.880,241.153 78.000 C 240.889 77.120,240.546 76.400,240.389 76.400 C 240.110 76.400,238.948 72.651,238.687 70.910 C 238.528 69.850,238.165 69.409,237.859 69.905 M173.600 71.024 C 173.600 71.367,173.756 71.551,173.947 71.433 C 174.137 71.315,174.615 71.575,175.009 72.009 C 175.402 72.444,175.890 72.800,176.093 72.800 C 176.296 72.800,175.922 72.260,175.262 71.600 C 173.901 70.240,173.600 70.135,173.600 71.024 M204.541 73.433 C 203.216 75.456,203.564 77.791,205.200 77.852 L 206.600 77.904 205.300 77.727 C 203.847 77.528,203.641 76.748,204.440 74.457 C 205.069 72.653,206.284 72.490,209.943 73.718 C 211.624 74.282,213.669 74.853,214.486 74.987 C 217.952 75.556,216.827 76.131,210.600 76.975 C 208.041 77.322,207.221 77.532,208.323 77.559 C 210.681 77.615,215.679 76.815,216.341 76.275 C 217.104 75.653,215.502 74.400,213.944 74.400 C 213.301 74.400,211.707 73.950,210.400 73.400 C 207.233 72.067,205.430 72.077,204.541 73.433 M158.406 75.675 C 158.400 78.079,159.400 83.077,160.043 83.852 C 161.326 85.397,161.258 94.745,159.947 97.194 C 158.726 99.473,158.896 104.411,160.276 106.765 C 161.325 108.555,161.352 108.766,161.381 115.400 C 161.404 120.617,161.566 122.665,162.078 124.200 C 163.306 127.883,163.409 145.113,162.217 147.300 C 161.707 148.235,161.076 149.673,160.815 150.495 C 159.948 153.230,158.230 154.185,153.094 154.787 C 148.465 155.330,143.599 156.663,141.277 158.024 C 140.550 158.451,139.705 158.800,139.400 158.800 C 139.095 158.800,138.562 159.205,138.215 159.700 C 137.868 160.195,137.543 160.545,137.492 160.479 C 137.311 160.240,134.400 161.617,134.400 161.941 C 134.400 162.123,133.995 162.480,133.500 162.735 C 133.005 162.991,131.790 163.819,130.800 164.576 C 128.382 166.425,123.866 169.200,123.276 169.200 C 123.014 169.200,122.800 169.375,122.800 169.590 C 122.800 169.804,122.249 170.264,121.575 170.613 C 119.159 171.862,113.496 178.033,111.850 181.209 C 110.998 182.854,110.058 184.470,109.762 184.800 C 107.531 187.283,106.773 188.196,105.075 190.447 C 102.601 193.728,100.400 197.231,100.400 197.887 C 100.400 198.169,100.220 198.400,100.000 198.400 C 99.780 198.400,99.600 198.588,99.600 198.818 C 99.600 199.049,98.970 200.583,98.200 202.227 C 97.430 203.872,96.794 205.349,96.786 205.509 C 96.779 205.669,96.425 206.520,96.000 207.400 C 95.575 208.280,95.221 209.137,95.214 209.305 C 95.206 209.473,94.593 210.913,93.850 212.505 C 91.403 217.753,91.236 218.228,90.774 221.227 C 90.522 222.862,90.073 224.920,89.777 225.800 C 89.120 227.748,88.106 235.894,88.010 240.000 C 87.971 241.650,87.753 249.348,87.526 257.106 L 87.113 271.211 88.413 273.826 L 89.713 276.441 89.202 280.588 C 88.183 288.847,88.832 293.202,91.512 296.085 C 92.487 297.134,92.511 297.288,92.228 300.685 C 91.809 305.716,91.874 306.213,93.368 309.359 L 94.714 312.192 93.376 314.596 C 92.640 315.918,91.209 318.620,90.196 320.600 C 89.182 322.580,88.121 324.380,87.838 324.600 C 87.555 324.820,87.043 325.540,86.702 326.200 C 86.360 326.860,85.342 328.238,84.440 329.261 C 83.538 330.285,82.800 331.298,82.800 331.512 C 82.800 331.727,82.510 332.143,82.155 332.437 C 81.484 332.994,80.979 333.890,78.029 339.762 L 76.259 343.286 76.329 347.943 C 76.369 350.580,76.624 353.207,76.917 354.000 C 77.780 356.337,79.588 359.600,80.020 359.600 C 80.244 359.600,82.266 360.996,84.513 362.702 C 86.761 364.408,89.455 366.253,90.500 366.801 C 91.545 367.350,92.400 367.934,92.400 368.099 C 92.400 368.265,92.681 368.400,93.024 368.400 C 93.393 368.400,93.531 368.588,93.362 368.862 C 93.190 369.140,93.252 369.215,93.518 369.051 C 94.083 368.701,97.600 369.575,97.600 370.065 C 97.600 370.269,97.825 370.398,98.100 370.353 C 98.375 370.308,99.107 370.481,99.726 370.736 C 100.345 370.991,101.039 371.200,101.268 371.200 C 101.497 371.200,102.571 371.646,103.655 372.190 C 105.432 373.083,106.208 373.195,111.513 373.323 C 117.717 373.472,117.669 372.996,111.442 372.616 C 107.042 372.347,103.522 371.800,102.431 371.216 C 101.987 370.979,99.684 370.086,97.312 369.231 C 88.333 365.995,80.848 360.421,78.470 355.200 C 77.919 353.990,77.297 352.886,77.087 352.747 C 76.868 352.602,76.773 350.690,76.862 348.261 L 77.019 344.028 79.398 339.314 C 80.706 336.721,82.872 333.160,84.211 331.400 C 88.299 326.027,90.082 323.210,92.995 317.526 L 95.789 312.071 94.395 309.187 C 93.054 306.414,93.006 306.161,93.165 302.651 C 93.443 296.484,93.444 296.492,92.118 295.091 C 89.918 292.767,89.427 288.766,90.187 279.367 C 90.509 275.375,90.501 275.315,89.356 273.367 L 88.200 271.400 88.297 262.600 C 88.351 257.760,88.485 252.900,88.596 251.800 C 88.707 250.700,88.894 246.560,89.012 242.600 C 89.338 231.672,91.383 220.285,94.066 214.465 C 94.945 212.559,96.265 209.470,96.999 207.600 C 100.218 199.409,104.091 192.801,108.838 187.400 C 110.192 185.860,111.665 183.790,112.112 182.800 C 114.415 177.699,118.364 173.955,128.400 167.360 C 130.930 165.698,133.360 164.013,133.800 163.616 C 137.516 160.264,145.636 156.913,152.384 155.947 C 158.365 155.090,159.864 154.460,160.868 152.382 C 161.235 151.622,162.106 149.841,162.804 148.425 L 164.072 145.850 163.820 135.534 C 163.643 128.319,163.393 124.643,162.988 123.308 C 162.590 121.999,162.407 119.454,162.404 115.200 C 162.399 109.096,162.380 108.960,161.159 106.400 C 159.697 103.336,159.702 99.736,161.174 96.851 C 162.608 94.040,162.312 88.985,160.245 81.000 C 159.675 78.800,159.205 76.460,159.199 75.800 C 159.193 75.140,159.013 74.330,158.800 74.000 C 158.525 73.574,158.410 74.059,158.406 75.675 M161.806 75.600 C 161.940 77.235,162.563 78.961,164.236 82.324 C 165.474 84.812,166.414 86.919,166.326 87.008 C 166.237 87.096,165.569 85.995,164.840 84.560 C 163.397 81.720,162.996 81.503,163.426 83.799 C 163.579 84.613,163.822 85.087,163.967 84.853 C 164.112 84.619,164.797 85.456,165.491 86.714 C 167.899 91.084,176.668 96.400,181.466 96.400 C 182.912 96.400,181.818 95.169,179.868 94.603 C 177.562 93.932,173.559 92.273,170.998 90.926 C 168.317 89.516,162.859 80.148,162.010 75.500 L 161.626 73.400 161.806 75.600 M164.282 90.000 C 164.448 93.726,164.357 94.942,163.804 96.400 C 162.391 100.129,162.217 102.043,163.113 104.011 C 163.561 104.995,164.054 106.477,164.209 107.304 C 164.364 108.132,164.638 108.900,164.819 109.012 C 164.999 109.123,165.043 111.793,164.915 114.944 C 164.734 119.417,164.823 121.280,165.320 123.437 C 165.759 125.337,166.038 129.287,166.214 136.087 L 166.470 145.975 165.433 148.168 C 164.154 150.870,163.563 152.400,163.798 152.400 C 163.896 152.400,164.629 151.005,165.427 149.300 L 166.877 146.200 166.623 136.200 C 166.450 129.403,166.162 125.245,165.726 123.220 C 165.232 120.925,165.139 119.025,165.323 114.960 C 165.560 109.716,165.552 109.654,164.212 105.804 C 162.735 101.564,162.710 100.363,164.034 97.126 C 164.859 95.107,165.031 90.574,164.409 87.200 C 164.191 86.014,164.148 86.970,164.282 90.000 M172.347 92.163 C 173.806 92.892,176.489 93.990,178.308 94.603 C 180.127 95.216,181.541 95.792,181.449 95.884 C 180.568 96.765,169.552 91.565,167.819 89.450 C 165.840 87.034,166.040 86.573,168.050 88.919 C 169.106 90.151,170.643 91.311,172.347 92.163 M244.084 122.200 C 243.982 127.234,244.070 127.388,250.778 134.000 C 256.674 139.812,258.583 142.087,259.373 144.242 C 259.687 145.099,259.956 145.467,259.972 145.060 C 260.035 143.396,258.361 141.224,251.759 134.403 C 244.217 126.611,244.452 127.008,244.282 121.800 L 244.165 118.200 244.084 122.200 M260.078 151.074 C 259.973 158.148,260.487 159.232,264.200 159.774 L 265.800 160.008 263.969 159.412 C 260.841 158.394,260.632 157.930,260.378 151.460 L 260.157 145.800 260.078 151.074 M163.386 154.120 C 163.174 154.604,161.920 155.580,160.600 156.289 C 159.280 156.998,158.461 157.583,158.781 157.589 C 159.731 157.607,163.580 155.092,163.836 154.285 C 164.179 153.207,163.842 153.083,163.386 154.120 M150.200 158.589 C 145.284 159.472,139.860 161.968,135.000 165.583 C 131.605 168.109,126.663 171.461,125.339 172.137 C 122.900 173.381,116.184 180.403,114.438 183.534 C 113.538 185.148,111.713 187.668,110.382 189.134 C 106.598 193.303,100.828 202.981,99.850 206.800 C 99.709 207.350,100.645 205.640,101.930 203.000 C 104.855 196.990,106.473 194.470,110.367 189.858 C 112.066 187.846,114.152 184.940,115.003 183.400 C 116.613 180.485,121.683 175.105,124.647 173.166 C 125.501 172.607,127.280 171.448,128.600 170.589 C 129.920 169.730,132.260 168.099,133.800 166.964 C 140.126 162.301,145.753 159.759,152.200 158.650 C 153.960 158.348,154.860 158.097,154.200 158.093 C 153.540 158.089,151.740 158.312,150.200 158.589 M266.908 160.799 C 267.658 161.389,268.160 162.491,268.824 165.004 C 269.319 166.877,269.811 168.323,269.917 168.216 C 270.479 167.655,268.100 160.881,267.165 160.381 C 265.968 159.740,265.836 159.956,266.908 160.799 M270.153 169.900 C 270.589 172.112,271.221 175.864,271.584 178.400 L 271.957 181.000 271.759 177.800 C 271.564 174.653,270.503 168.800,270.128 168.800 C 270.023 168.800,270.034 169.295,270.153 169.900 M272.075 184.800 C 272.064 186.890,272.188 188.934,272.348 189.343 C 272.509 189.752,272.577 188.312,272.499 186.143 C 272.307 180.818,272.097 180.152,272.075 184.800 M272.462 193.800 C 272.360 196.420,270.421 201.855,268.386 205.222 C 266.304 208.670,266.058 210.141,267.182 212.434 C 267.658 213.405,267.922 213.750,267.770 213.200 C 266.984 210.370,267.106 207.981,268.114 206.458 C 270.875 202.285,272.952 196.432,272.695 193.545 L 272.540 191.800 272.462 193.800 M97.859 211.495 C 94.446 219.277,94.319 219.667,94.119 222.965 C 94.007 224.819,93.512 227.424,92.961 229.067 C 92.433 230.644,92.014 232.264,92.032 232.667 C 92.050 233.103,92.218 232.914,92.446 232.200 C 92.656 231.540,93.168 229.920,93.583 228.600 C 93.998 227.280,94.435 224.726,94.554 222.925 C 94.746 220.031,95.053 219.014,97.200 214.168 C 98.536 211.153,99.576 208.529,99.512 208.337 C 99.449 208.146,98.705 209.567,97.859 211.495 M266.653 216.481 C 264.490 218.808,264.082 220.811,265.019 224.522 C 265.204 225.258,265.066 226.166,264.618 227.160 C 264.242 227.993,264.013 229.198,264.107 229.838 C 264.266 230.902,264.285 230.880,264.340 229.576 C 264.373 228.794,264.664 227.804,264.987 227.376 C 265.688 226.449,265.760 224.871,265.171 223.326 C 264.459 221.459,265.078 218.937,266.685 217.158 C 267.470 216.290,268.040 215.507,267.952 215.418 C 267.863 215.330,267.279 215.808,266.653 216.481 M262.839 233.387 C 262.378 234.621,262.020 236.118,262.044 236.715 C 262.078 237.558,262.160 237.443,262.414 236.200 C 262.593 235.320,263.034 233.906,263.393 233.057 C 263.753 232.208,263.964 231.431,263.862 231.329 C 263.761 231.228,263.301 232.154,262.839 233.387 M91.701 235.000 C 91.705 235.880,91.787 236.193,91.883 235.695 C 91.979 235.198,91.975 234.478,91.875 234.095 C 91.775 233.713,91.696 234.120,91.701 235.000 M91.100 245.100 C 91.045 248.785,90.969 254.320,90.931 257.400 C 90.892 260.480,90.742 264.620,90.596 266.600 C 90.336 270.124,90.357 270.251,91.620 272.595 C 92.852 274.883,93.144 278.933,92.373 283.039 C 92.336 283.237,92.327 285.315,92.353 287.656 L 92.400 291.913 93.980 293.825 C 94.849 294.876,95.630 296.291,95.716 296.968 L 95.872 298.200 95.936 296.944 C 95.984 296.001,95.591 295.202,94.361 293.744 L 92.722 291.800 92.980 283.048 L 93.237 274.297 92.142 272.716 C 90.895 270.917,90.974 273.173,91.400 251.500 C 91.541 244.295,91.554 238.400,91.429 238.400 C 91.303 238.400,91.155 241.415,91.100 245.100 M261.600 239.635 C 261.600 240.094,261.213 241.801,260.740 243.428 C 259.833 246.552,259.923 248.312,261.585 259.800 C 261.915 262.081,261.923 262.042,261.749 259.000 C 261.648 257.240,261.273 253.694,260.916 251.121 C 260.306 246.739,260.309 246.307,260.952 244.321 C 261.727 241.927,262.239 238.800,261.854 238.800 C 261.714 238.800,261.600 239.176,261.600 239.635 M193.067 239.467 C 192.277 240.256,192.984 241.564,195.338 243.669 C 198.550 246.542,202.133 253.474,205.226 262.800 C 206.357 266.210,207.457 269.270,207.671 269.600 C 208.126 270.300,208.321 270.942,205.413 262.200 C 202.010 251.969,199.044 246.306,195.333 242.958 C 191.959 239.913,193.237 238.310,197.000 240.868 C 200.129 242.994,203.991 250.747,208.399 263.756 C 213.808 279.714,218.553 292.795,217.847 289.800 C 217.591 288.715,212.818 275.022,211.224 270.800 C 210.518 268.930,209.306 265.420,208.531 263.000 C 206.937 258.021,204.976 252.687,204.193 251.200 C 203.903 250.650,202.999 248.850,202.183 247.200 C 199.411 241.594,194.828 237.706,193.067 239.467 M237.289 244.223 C 236.800 244.565,236.400 245.129,236.400 245.477 C 236.400 245.919,236.643 245.798,237.215 245.072 C 238.623 243.282,239.216 244.050,238.967 247.340 C 238.849 248.913,238.909 251.280,239.102 252.600 C 239.399 254.641,239.445 254.221,239.408 249.795 C 239.355 243.488,239.141 242.925,237.289 244.223 M236.220 249.600 C 236.544 255.927,237.476 263.858,237.851 263.482 C 237.936 263.397,237.719 260.824,237.368 257.764 C 237.017 254.704,236.576 250.850,236.388 249.200 L 236.046 246.200 236.220 249.600 M239.714 257.000 C 239.717 258.100,239.795 258.503,239.887 257.895 C 239.979 257.286,239.977 256.386,239.882 255.895 C 239.787 255.403,239.711 255.900,239.714 257.000 M240.052 260.600 C 240.042 261.260,240.373 263.150,240.787 264.800 C 241.763 268.684,241.784 266.792,240.812 262.600 C 240.398 260.817,240.062 259.931,240.052 260.600 M262.213 264.501 C 262.430 266.246,263.921 271.121,263.957 270.200 C 263.965 269.980,263.523 268.180,262.975 266.200 C 262.270 263.658,262.046 263.159,262.213 264.501 M238.223 265.615 C 238.366 266.597,238.744 268.570,239.064 270.000 C 239.383 271.430,239.916 274.040,240.247 275.800 C 240.579 277.560,241.175 280.080,241.573 281.400 C 241.971 282.720,242.623 285.679,243.023 287.976 C 243.422 290.273,243.824 291.928,243.915 291.654 C 244.144 290.968,243.346 286.706,241.953 281.172 C 241.312 278.627,240.529 275.117,240.212 273.372 C 238.934 266.336,237.534 260.876,238.223 265.615 M241.804 269.200 C 242.777 275.360,245.482 286.752,245.564 285.033 C 245.584 284.611,245.074 282.271,244.431 279.833 C 243.787 277.395,243.142 274.468,242.997 273.330 C 242.852 272.191,242.474 270.481,242.158 269.530 C 241.639 267.970,241.605 267.937,241.804 269.200 M208.229 271.200 C 208.376 271.750,208.664 272.470,208.867 272.800 C 209.125 273.217,209.157 273.095,208.971 272.400 C 208.824 271.850,208.536 271.130,208.333 270.800 C 208.075 270.383,208.043 270.505,208.229 271.200 M264.442 274.000 C 264.434 274.330,264.781 275.770,265.212 277.200 C 265.881 279.420,265.959 279.539,265.749 278.020 C 265.487 276.129,264.466 272.988,264.442 274.000 M210.400 276.950 C 210.400 277.586,213.678 287.256,213.839 287.095 C 213.934 286.999,213.270 284.688,212.361 281.960 C 210.816 277.319,210.400 276.258,210.400 276.950 M266.214 281.400 C 266.973 287.455,267.271 289.304,267.614 290.098 C 267.956 290.890,267.979 290.853,267.799 289.800 C 267.686 289.140,267.413 287.250,267.193 285.600 C 266.973 283.950,266.618 281.970,266.403 281.200 L 266.014 279.800 266.214 281.400 M214.000 287.641 C 214.000 288.540,216.082 294.882,217.860 299.400 C 220.810 306.896,220.988 307.371,223.184 313.602 C 224.230 316.573,225.589 319.993,226.203 321.202 C 226.816 322.411,227.729 324.570,228.230 326.000 C 228.731 327.430,229.964 330.926,230.969 333.768 C 231.974 336.611,232.693 339.041,232.565 339.168 C 232.437 339.296,221.053 339.400,207.266 339.400 C 189.202 339.400,184.155 339.489,189.200 339.719 C 197.465 340.096,232.622 339.912,233.044 339.489 C 233.508 339.025,228.953 326.046,226.415 320.600 C 225.800 319.280,224.033 314.690,222.488 310.400 C 220.943 306.110,218.849 300.564,217.834 298.075 C 216.819 295.587,215.636 292.276,215.204 290.718 C 214.543 288.333,214.000 286.945,214.000 287.641 M246.218 290.200 C 246.380 291.520,246.756 293.320,247.052 294.200 C 247.659 296.002,247.665 296.077,246.753 290.610 C 246.225 287.447,245.843 287.155,246.218 290.200 M218.004 291.203 C 217.999 292.015,218.505 293.589,220.000 297.400 C 222.219 303.060,223.204 305.689,225.171 311.200 C 226.231 314.170,227.822 318.220,228.707 320.200 C 229.592 322.180,230.447 324.250,230.606 324.800 C 231.033 326.270,232.724 330.389,233.562 332.000 C 233.962 332.770,234.619 334.390,235.022 335.600 C 236.330 339.526,235.883 339.371,246.510 339.604 C 251.619 339.716,255.840 339.797,255.888 339.783 C 256.234 339.682,253.377 329.712,252.246 327.074 C 251.474 325.273,250.368 322.090,249.787 320.000 C 248.415 315.056,247.928 313.681,248.229 315.600 C 248.571 317.784,250.832 325.240,251.641 326.854 C 252.968 329.503,255.199 337.067,255.200 338.925 C 255.201 339.280,253.059 339.371,246.689 339.285 C 236.577 339.149,236.701 339.201,235.221 334.495 C 234.718 332.897,234.153 331.494,233.965 331.378 C 233.517 331.102,232.151 328.061,231.008 324.800 C 230.508 323.370,229.613 321.120,229.021 319.800 C 228.429 318.480,227.440 316.050,226.825 314.400 C 226.209 312.750,224.592 308.430,223.231 304.800 C 221.871 301.170,220.139 296.490,219.383 294.400 C 218.627 292.310,218.006 290.871,218.004 291.203 M268.046 291.800 C 267.992 292.753,269.559 302.091,269.813 302.333 C 269.967 302.480,269.988 302.060,269.859 301.400 C 269.729 300.740,269.435 298.760,269.205 297.000 C 268.823 294.077,268.101 290.836,268.046 291.800 M244.246 293.800 C 244.884 298.133,245.244 300.337,246.360 306.752 C 247.026 310.575,247.684 313.815,247.822 313.952 C 248.137 314.262,247.727 311.304,246.802 306.600 C 246.412 304.620,245.868 301.470,245.593 299.600 C 245.318 297.730,244.849 295.300,244.551 294.200 C 244.088 292.488,244.044 292.430,244.246 293.800 M247.701 297.400 C 247.705 298.280,247.787 298.593,247.883 298.095 C 247.979 297.598,247.975 296.878,247.875 296.495 C 247.775 296.113,247.696 296.520,247.701 297.400 M248.171 301.000 C 248.751 305.230,249.332 308.180,249.493 307.709 C 249.684 307.151,248.445 299.506,248.114 299.200 C 247.995 299.090,248.021 299.900,248.171 301.000 M95.454 301.456 C 95.026 304.584,95.157 305.537,96.344 307.911 C 97.494 310.211,99.012 314.538,99.324 316.400 C 99.464 317.240,99.500 317.196,99.546 316.127 C 99.607 314.695,97.759 309.390,96.393 307.077 C 95.592 305.721,95.523 305.228,95.764 302.577 C 96.062 299.288,95.854 298.537,95.454 301.456 M270.226 303.800 C 270.349 304.460,270.597 307.520,270.778 310.600 C 271.087 315.871,273.111 324.222,273.890 323.443 C 274.002 323.331,273.505 321.566,272.785 319.520 C 271.666 316.336,271.435 315.022,271.187 310.400 C 271.028 307.430,270.696 304.460,270.450 303.800 L 270.003 302.600 270.226 303.800 M249.852 310.400 C 250.195 313.470,252.507 321.733,254.131 325.689 C 254.879 327.510,255.893 330.226,256.386 331.726 C 256.879 333.225,257.379 334.354,257.498 334.235 C 257.737 333.996,255.992 328.930,254.582 325.772 C 253.414 323.154,252.164 318.999,250.743 313.000 C 250.028 309.978,249.697 309.015,249.852 310.400 M179.600 315.649 C 178.206 316.871,178.205 316.872,179.488 316.019 C 180.196 315.548,180.882 314.991,181.012 314.781 C 181.397 314.157,181.077 314.354,179.600 315.649 M95.518 317.700 C 94.024 320.623,93.590 321.600,93.783 321.600 C 93.895 321.600,94.446 320.693,95.008 319.585 C 95.999 317.628,96.800 317.275,96.800 318.793 C 96.800 320.603,101.327 330.404,104.338 335.113 C 108.559 341.715,108.601 341.765,110.840 342.880 C 116.728 345.813,140.908 346.781,148.264 344.379 C 149.338 344.028,149.324 344.018,148.000 344.193 C 132.006 346.303,113.006 344.910,109.173 341.345 C 105.966 338.363,98.308 323.741,97.167 318.421 C 96.659 316.053,96.414 315.946,95.518 317.700 M99.614 318.163 C 99.598 319.010,102.619 325.855,103.425 326.800 C 103.707 327.130,104.064 327.940,104.219 328.600 C 105.549 334.267,112.870 342.139,116.650 341.966 C 117.209 341.940,117.146 341.850,116.400 341.611 C 113.513 340.688,111.602 339.534,110.319 337.940 C 108.234 335.348,105.817 331.585,105.218 330.000 C 104.928 329.230,103.876 326.980,102.881 325.000 C 101.886 323.020,100.747 320.500,100.350 319.400 C 99.953 318.300,99.622 317.743,99.614 318.163 M92.242 323.860 C 91.686 324.927,90.156 327.240,88.842 329.000 C 75.669 346.651,75.915 355.229,89.810 362.764 C 98.863 367.672,102.045 368.910,107.469 369.632 C 112.344 370.281,111.989 369.836,107.017 369.067 C 104.708 368.710,101.779 367.985,100.509 367.457 C 99.239 366.929,97.750 366.358,97.200 366.190 C 96.650 366.021,95.480 365.426,94.600 364.867 C 93.720 364.309,91.650 363.146,90.000 362.283 C 82.641 358.435,80.123 354.995,79.700 348.207 L 79.499 344.993 81.743 340.657 C 82.977 338.271,84.845 335.151,85.894 333.723 C 90.147 327.931,90.868 326.905,92.248 324.677 C 93.039 323.399,93.589 322.256,93.470 322.137 C 93.351 322.018,92.799 322.793,92.242 323.860 M274.000 324.263 C 274.000 324.482,274.543 326.537,275.207 328.830 C 275.871 331.124,276.598 333.676,276.824 334.502 C 277.368 336.497,278.443 337.117,281.800 337.371 L 284.600 337.583 281.450 337.022 C 277.539 336.324,277.969 336.879,276.012 330.015 C 274.480 324.641,274.000 323.269,274.000 324.263 M288.000 335.573 C 288.000 335.778,288.354 336.058,288.786 336.195 C 291.440 337.038,294.367 342.174,294.674 346.529 C 295.049 351.848,293.596 354.179,286.649 359.406 C 285.769 360.068,284.780 361.313,284.365 362.281 C 282.679 366.215,277.910 371.286,274.200 373.092 C 272.772 373.786,272.543 373.991,273.400 373.807 C 276.809 373.075,285.200 364.306,285.200 361.476 C 285.200 360.833,288.468 358.400,289.333 358.400 C 289.603 358.400,290.899 357.295,292.213 355.944 C 293.526 354.593,294.375 353.614,294.100 353.768 C 293.321 354.203,293.513 353.309,294.324 352.723 C 295.244 352.058,295.528 345.848,294.761 343.159 C 294.485 342.192,294.295 341.252,294.339 341.070 C 294.384 340.889,294.254 340.843,294.052 340.968 C 293.635 341.226,293.092 340.098,293.396 339.606 C 293.506 339.429,293.315 339.176,292.972 339.045 C 292.630 338.913,292.456 338.633,292.586 338.423 C 292.716 338.212,292.412 337.824,291.911 337.560 C 291.410 337.296,290.910 336.968,290.800 336.831 C 290.060 335.908,288.000 334.983,288.000 335.573 M258.220 337.400 C 258.613 339.917,258.812 340.400,259.456 340.400 C 259.980 340.400,259.976 340.319,259.429 339.771 C 259.083 339.426,258.797 338.661,258.794 338.071 C 258.791 337.482,258.604 336.730,258.379 336.400 C 258.085 335.968,258.040 336.248,258.220 337.400 M286.232 338.208 C 288.330 338.996,290.126 340.879,291.186 343.400 C 291.724 344.681,291.942 344.969,291.793 344.200 C 291.203 341.167,288.559 338.355,285.800 337.825 C 284.924 337.657,285.041 337.761,286.232 338.208 M171.718 339.498 C 173.433 339.573,176.133 339.572,177.718 339.497 C 179.303 339.421,177.900 339.359,174.600 339.360 C 171.300 339.361,170.003 339.422,171.718 339.498 M160.112 339.895 C 161.164 339.977,162.784 339.976,163.712 339.892 C 164.640 339.808,163.780 339.741,161.800 339.742 C 159.820 339.743,159.060 339.812,160.112 339.895 M154.905 340.287 C 155.514 340.379,156.414 340.377,156.905 340.282 C 157.397 340.187,156.900 340.111,155.800 340.114 C 154.700 340.117,154.297 340.195,154.905 340.287 M261.881 340.820 C 262.806 341.002,263.947 341.357,264.416 341.608 C 264.885 341.859,265.371 341.963,265.496 341.838 C 265.887 341.447,262.890 340.398,261.513 340.444 C 260.274 340.485,260.294 340.506,261.881 340.820 M145.700 341.876 C 146.085 341.976,146.715 341.976,147.100 341.876 C 147.485 341.775,147.170 341.693,146.400 341.693 C 145.630 341.693,145.315 341.775,145.700 341.876 M171.318 341.898 C 173.033 341.973,175.733 341.972,177.318 341.897 C 178.903 341.821,177.500 341.759,174.200 341.760 C 170.900 341.761,169.603 341.822,171.318 341.898 M118.300 342.282 C 118.795 342.378,119.605 342.378,120.100 342.282 C 120.595 342.187,120.190 342.109,119.200 342.109 C 118.210 342.109,117.805 342.187,118.300 342.282 M141.900 342.282 C 142.395 342.378,143.205 342.378,143.700 342.282 C 144.195 342.187,143.790 342.109,142.800 342.109 C 141.810 342.109,141.405 342.187,141.900 342.282 M156.600 342.432 C 154.400 342.608,151.880 343.036,151.000 343.384 C 150.120 343.731,149.850 343.918,150.400 343.798 C 152.198 343.407,157.316 342.791,161.600 342.451 C 164.723 342.203,165.134 342.117,163.200 342.116 C 161.770 342.115,158.800 342.257,156.600 342.432 M186.400 342.461 C 193.680 342.813,224.714 342.825,230.200 342.478 C 232.620 342.325,222.540 342.200,207.800 342.200 C 193.060 342.200,183.430 342.317,186.400 342.461 M236.300 342.289 C 237.015 342.378,238.185 342.378,238.900 342.289 C 239.615 342.201,239.030 342.128,237.600 342.128 C 236.170 342.128,235.585 342.201,236.300 342.289 M249.600 342.437 C 258.254 342.808,261.087 343.214,264.369 344.552 C 265.782 345.129,267.093 345.600,267.282 345.600 C 270.008 345.600,281.549 352.749,282.216 354.850 C 284.055 360.643,278.370 368.742,271.152 370.612 C 269.759 370.973,268.306 371.436,267.924 371.641 C 267.541 371.845,265.647 372.462,263.714 373.011 C 261.470 373.648,260.830 373.931,261.943 373.793 C 262.902 373.674,264.702 373.209,265.943 372.759 C 267.184 372.309,269.460 371.583,271.000 371.145 C 277.704 369.240,282.924 363.247,282.981 357.392 C 283.053 349.801,265.301 341.944,248.400 342.088 L 242.600 342.137 249.600 342.437 M266.000 342.167 C 266.000 342.259,267.485 342.824,269.300 343.422 C 273.564 344.828,275.167 345.646,278.691 348.210 C 283.948 352.036,285.195 353.371,285.206 355.189 C 285.228 358.774,289.814 355.053,291.229 350.303 C 291.684 348.774,291.978 347.445,291.882 347.348 C 291.786 347.252,291.368 348.391,290.953 349.880 C 290.361 352.008,289.810 352.994,288.374 354.493 C 286.143 356.822,285.767 356.857,285.485 354.761 C 285.021 351.298,277.112 345.530,269.359 342.999 C 266.093 341.933,266.000 341.910,266.000 342.167 M126.123 342.699 C 128.941 342.768,133.441 342.768,136.123 342.699 C 138.805 342.630,136.500 342.573,131.000 342.573 C 125.500 342.574,123.305 342.630,126.123 342.699 M117.200 371.020 C 123.227 371.987,124.677 372.144,124.325 371.792 C 124.051 371.517,113.686 370.006,112.400 370.053 C 111.850 370.073,114.010 370.508,117.200 371.020 M129.000 372.996 C 131.420 373.528,133.670 373.951,134.000 373.937 C 135.023 373.894,128.959 372.493,126.719 372.255 C 125.509 372.127,126.488 372.445,129.000 372.996 M120.933 374.480 C 120.933 374.831,121.529 375.000,122.767 375.001 C 123.775 375.002,125.680 375.126,127.000 375.278 L 129.400 375.553 127.332 375.026 C 123.803 374.128,120.933 373.883,120.933 374.480 M136.800 374.416 C 138.010 374.621,139.990 374.963,141.200 375.178 C 144.337 375.734,148.248 376.091,146.400 375.652 C 143.859 375.050,139.840 374.431,137.200 374.236 L 134.600 374.045 136.800 374.416 M255.600 374.409 C 254.610 374.579,251.730 374.831,249.200 374.970 C 242.559 375.335,238.719 375.652,238.888 375.821 C 239.195 376.129,254.334 375.140,257.200 374.625 C 258.874 374.324,259.581 374.089,258.800 374.093 C 258.030 374.097,256.590 374.239,255.600 374.409 M269.400 374.493 C 268.520 374.709,267.440 375.047,267.000 375.244 C 266.158 375.621,266.031 375.631,270.300 374.986 C 271.235 374.845,272.000 374.566,272.000 374.365 C 272.000 373.939,271.576 373.960,269.400 374.493 M131.331 376.265 C 131.650 376.583,138.187 377.597,139.600 377.547 C 140.150 377.528,138.800 377.183,136.600 376.781 C 132.248 375.985,130.922 375.856,131.331 376.265 M151.527 376.578 C 154.657 377.098,168.419 378.064,171.013 377.946 C 172.929 377.858,166.746 377.261,159.400 376.824 C 155.660 376.601,151.610 376.331,150.400 376.222 C 149.020 376.098,149.440 376.231,151.527 376.578 M236.712 376.221 C 236.590 376.343,234.625 376.774,232.345 377.178 C 227.854 377.976,228.262 378.277,232.867 377.562 C 235.563 377.144,238.892 376.048,237.567 376.016 C 237.218 376.007,236.834 376.100,236.712 376.221 M259.800 376.817 C 258.040 377.214,253.630 377.746,250.000 377.999 C 246.370 378.252,241.510 378.722,239.200 379.044 C 232.132 380.027,228.846 380.376,222.600 380.803 C 219.300 381.028,215.160 381.365,213.400 381.551 C 208.785 382.039,184.337 381.828,181.200 381.272 C 178.566 380.806,169.521 380.148,160.400 379.759 C 157.650 379.641,153.780 379.302,151.800 379.004 C 144.997 377.982,144.000 377.921,144.000 378.525 C 144.000 378.849,144.456 379.100,145.100 379.131 C 146.147 379.181,148.622 379.505,154.400 380.346 C 155.830 380.554,161.770 380.931,167.600 381.184 C 173.430 381.437,178.830 381.856,179.600 382.115 C 181.969 382.913,217.600 382.775,217.600 381.968 C 217.600 381.817,219.625 381.669,222.100 381.639 C 227.896 381.570,234.563 380.916,236.600 380.217 C 237.480 379.915,240.360 379.571,243.000 379.453 C 250.732 379.107,258.492 378.421,258.963 378.041 C 259.204 377.848,260.336 377.564,261.480 377.410 C 262.624 377.256,263.771 376.876,264.029 376.565 C 264.639 375.830,263.999 375.868,259.800 376.817 M174.300 378.289 C 175.015 378.378,176.185 378.378,176.900 378.289 C 177.615 378.201,177.030 378.128,175.600 378.128 C 174.170 378.128,173.585 378.201,174.300 378.289 M216.400 378.409 C 212.813 378.829,189.307 379.059,183.200 378.734 C 179.448 378.534,178.799 378.561,180.600 378.843 C 184.073 379.387,210.829 379.612,214.200 379.126 C 215.740 378.904,219.430 378.588,222.400 378.424 L 227.800 378.126 223.400 378.116 C 220.980 378.110,217.830 378.242,216.400 378.409 " stroke="none" fill="#51582f" fill-rule="evenodd"></path></g></svg>
