<svg id="Layer_1" data-name="Layer 1" xmlns="http://www.w3.org/2000/svg" viewBox="0 0 766.96 646.18"><defs><style>.cls-1{fill:#231f20;}.cls-2{fill:#db1e2f;fill-rule:evenodd;}</style></defs><title>Vertical Vermelho - Logotipo CIn-UFPE</title><g id="Vertical"><g id="Centro_de" data-name="Centro de"><path class="cls-1" d="M140.92,375.52c0-22.6,17-37.85,39.05-37.85,16,0,25.34,8.67,30.5,17.88l-13.38,6.58A19.82,19.82,0,0,0,180,351.49c-13.38,0-23,10.2-23,24s9.66,24,23,24a19.8,19.8,0,0,0,17.12-10.64l13.38,6.47c-5.16,9.11-14.48,18-30.5,18-22.05,0-39.05-15.36-39.05-37.85"/><path class="cls-1" d="M216.07,385.5c0-15.36,11.4-27.75,27.42-27.75S270,369.59,270,386.82v3.29H230.66c1,6.47,6.25,11.85,15.25,11.85,4.49,0,10.64-1.87,14-5.16L266.2,406c-5.26,4.82-13.6,7.35-21.83,7.35-16.13,0-28.3-10.86-28.3-27.87m27.42-16.35c-8.66,0-12.39,6-12.94,11.31h26.11c-.44-5-4-11.31-13.17-11.31"/><path class="cls-1" d="M315.9,412.05V380c0-7.35-3.84-9.88-9.77-9.88a15.49,15.49,0,0,0-12.06,6.14v35.77H280.13v-53h13.94v6.8a24.77,24.77,0,0,1,18.54-8.11c11.73,0,17.33,6.58,17.33,16.89v37.41Z"/><path class="cls-1" d="M346.51,398.77V371.24h-8.78V359.06h8.78V344.58h13.93v14.48h10.75v12.18H360.44v23.81c0,3.39,1.75,5.92,4.83,5.92a7,7,0,0,0,4.82-1.65l3,10.64c-2.08,1.87-5.81,3.41-11.62,3.41-9.77,0-14.92-5.05-14.92-14.6"/><path class="cls-1" d="M380.73,412.05v-53h13.94v7.13c3.84-4.6,10.31-8.44,16.89-8.44v13.6a17.74,17.74,0,0,0-3.84-.33c-4.6,0-10.75,2.63-13.05,6v35Z"/><path class="cls-1" d="M416.83,385.5c0-15,10.53-27.75,28-27.75s28.09,12.72,28.09,27.75-10.54,27.87-28.09,27.87-28-12.84-28-27.87m41.58,0c0-8.23-4.83-15.36-13.61-15.36s-13.49,7.13-13.49,15.36S436.14,401,444.8,401s13.61-7.13,13.61-15.47"/><path class="cls-1" d="M547.92,412.05v-6.8a20.41,20.41,0,0,1-16.34,8.12c-13.28,0-23.48-10.1-23.48-27.87,0-17.22,10-27.75,23.48-27.75a20.09,20.09,0,0,1,16.34,8.11v-27H562v73.17Zm0-17.12V376.18c-2.3-3.52-7.35-6-11.95-6-8,0-13.5,6.26-13.5,15.36S528,401,536,401c4.6,0,9.65-2.53,11.95-6"/><path class="cls-1" d="M572.39,385.5c0-15.36,11.41-27.75,27.43-27.75s26.54,11.84,26.54,29.07v3.29H587c1,6.47,6.25,11.85,15.25,11.85,4.5,0,10.64-1.87,14-5.16l6.26,9.22c-5.27,4.82-13.61,7.35-21.84,7.35-16.12,0-28.3-10.86-28.3-27.87m27.43-16.35c-8.67,0-12.4,6-13,11.31H613c-.44-5-4-11.31-13.16-11.31"/></g><g id="Informática"><rect class="cls-1" x="108.44" y="445.85" width="15.58" height="73.17"/><path class="cls-1" d="M173.93,519V487c0-7.35-3.84-9.88-9.76-9.88a15.49,15.49,0,0,0-12.07,6.14V519H138.17V466H152.1v6.8a24.77,24.77,0,0,1,18.54-8.11c11.74,0,17.33,6.58,17.33,16.89V519Z"/><path class="cls-1" d="M204.87,519V478.21h-8.78V466h8.78v-2.19c0-12,7.13-19.09,17.77-19.09,5.16,0,10.64,1.43,13.82,5.05l-5.26,8.44a8.2,8.2,0,0,0-5.82-2.08c-3.95,0-6.58,2.52-6.58,7.68V466h10.75v12.18H218.8V519Z"/><path class="cls-1" d="M234.16,492.47c0-15,10.53-27.75,28-27.75s28.09,12.72,28.09,27.75-10.53,27.87-28.09,27.87-28-12.84-28-27.87m41.58,0c0-8.23-4.83-15.36-13.61-15.36s-13.49,7.13-13.49,15.36,4.83,15.47,13.49,15.47,13.61-7.13,13.61-15.47"/><path class="cls-1" d="M300.64,519V466h13.93v7.13c3.84-4.6,10.32-8.44,16.9-8.44v13.6a17.8,17.8,0,0,0-3.84-.33c-4.61,0-10.75,2.63-13.06,6v35Z"/><path class="cls-1" d="M405.85,519V485.56c0-4.94-2.2-8.45-7.9-8.45-4.94,0-9,3.29-11,6.14V519h-14V485.56c0-4.94-2.2-8.45-7.9-8.45-4.83,0-8.89,3.29-11,6.14V519H340.13V466h13.94v6.8c2.3-3.07,9.21-8.11,17.33-8.11,7.79,0,12.84,3.61,14.7,9.54a22.68,22.68,0,0,1,18.21-9.54c9.77,0,15.58,5.15,15.58,16V519Z"/><path class="cls-1" d="M465.53,519v-5.6c-3.62,4.39-9.87,6.91-16.78,6.91-8.45,0-18.33-5.7-18.33-17.55,0-12.5,9.88-17.11,18.33-17.11,7.13,0,13.27,2.3,16.78,6.47v-6.69c0-5.38-4.61-8.89-11.63-8.89a22.29,22.29,0,0,0-15.25,6.26l-5.48-9.77c6.47-5.81,14.81-8.33,23.14-8.33,12.18,0,23.26,4.82,23.26,20.07V519Zm0-12.73v-6.58c-2.31-3.07-6.69-4.72-11.19-4.72-5.49,0-10,3-10,8s4.49,7.9,10,7.9c4.5,0,8.88-1.54,11.19-4.61M457.63,458h-9.76l14.7-15.8H475.4Z"/><path class="cls-1" d="M496.14,505.74V478.21h-8.78V466h8.78V451.55h13.93V466h10.75v12.18H510.07V502c0,3.39,1.76,5.92,4.83,5.92a7,7,0,0,0,4.82-1.65l3,10.64c-2.09,1.87-5.82,3.4-11.63,3.4-9.77,0-14.92-5-14.92-14.59"/><path class="cls-1" d="M529.05,452a8.29,8.29,0,0,1,16.57,0,8.29,8.29,0,1,1-16.57,0m1.32,14H544.3v53H530.37Z"/><path class="cls-1" d="M554.72,492.47c0-16.24,11.85-27.75,28.08-27.75,10.87,0,17.45,4.71,21,9.54l-9.11,8.56a12.85,12.85,0,0,0-11.19-5.71c-8.44,0-14.37,6.15-14.37,15.36s5.93,15.47,14.37,15.47a13.17,13.17,0,0,0,11.19-5.82l9.11,8.56c-3.51,4.83-10.09,9.66-21,9.66-16.23,0-28.08-11.52-28.08-27.87"/><path class="cls-1" d="M644.68,519v-5.6c-3.62,4.39-9.87,6.91-16.79,6.91-8.44,0-18.31-5.7-18.31-17.55,0-12.5,9.87-17.11,18.31-17.11,7.14,0,13.28,2.3,16.79,6.47v-6.69c0-5.38-4.61-8.89-11.63-8.89a22.29,22.29,0,0,0-15.25,6.26l-5.48-9.77c6.47-5.81,14.81-8.33,23.15-8.33,12.17,0,23.25,4.82,23.25,20.07V519Zm0-12.73v-6.58c-2.3-3.07-6.69-4.72-11.19-4.72-5.48,0-10,3-10,8s4.5,7.9,10,7.9c4.5,0,8.89-1.54,11.19-4.61"/></g><g id="UFPE"><path class="cls-1" d="M298.36,555.22h5.56v22.19c0,6.28,3.47,10.3,9.91,10.3s9.86-4,9.86-10.3V555.22h5.56v22.3c0,9.15-5.12,15.09-15.42,15.09s-15.47-6-15.47-15Z"/><polygon class="cls-1" points="348.46 555.22 373.12 555.22 373.12 560.07 353.96 560.07 353.96 570.81 372.74 570.81 372.74 575.65 353.96 575.65 353.96 591.95 348.46 591.95 348.46 555.22"/><path class="cls-1" d="M390.08,555.22h15.47c7.54,0,11.73,5.18,11.73,11.29S413,577.8,405.55,577.8h-10V592h-5.5Zm14.75,4.85h-9.25V573h9.25c4,0,6.77-2.59,6.77-6.45s-2.8-6.44-6.77-6.44"/><polygon class="cls-1" points="433.95 555.22 458.62 555.22 458.62 560.07 439.46 560.07 439.46 570.81 458.23 570.81 458.23 575.65 439.46 575.65 439.46 587.11 458.62 587.11 458.62 591.95 433.95 591.95 433.95 555.22"/></g><g id="Simbolo"><path class="cls-2" d="M277.75,257.73V242.25s72.9-69.83,98.65-80c0,0,49.92-22.15,63.87,42.47,8.17,37.83,17.54,66.29,53.91,52.9,12.51-4.6,27.39-14.8,47.61-30.38l3.57,13.85S399.72,395,350.2,241.35c-3.48-10.82-11.27-13.81-20.07-12.72-21.33,2.76-52.38,29.1-52.38,29.1"/><path class="cls-2" d="M484.43,53.16c8.34,13.91,10.53,36.1-10.58,48.76a81.67,81.67,0,0,1-29.64,10.6c-20.75,2.87-41.17-.87-42.62-3.29-2.17-3.61,12.3-54.45,34.59-67.82C457.17,28.82,476.63,40.15,484.43,53.16Z"/></g></g></svg>